<svg width="50" height="50" viewBox="0 0 50 50" fill="none" xmlns="http://www.w3.org/2000/svg">
<path fill-rule="evenodd" clip-rule="evenodd" d="M25 47.2222C37.2736 47.2222 47.2222 37.2736 47.2222 25C47.2222 12.7264 37.2736 2.77778 25 2.77778C12.7264 2.77778 2.77778 12.7264 2.77778 25C2.77778 37.2736 12.7264 47.2222 25 47.2222ZM25 50C38.8069 50 50 38.8069 50 25C50 11.1931 38.8069 0 25 0C11.1931 0 0 11.1931 0 25C0 38.8069 11.1931 50 25 50Z" fill="#4E5269"/>
<path fill-rule="evenodd" clip-rule="evenodd" d="M14.8542 30.5555C17.0139 35.8778 20.9931 38.8889 25 38.8889C29.0083 38.8889 32.9861 35.8778 35.1458 30.5555H14.8542ZM25 41.6667C19.3917 41.6667 14.5306 37.4333 12.1417 31.25C12.1183 31.1904 12.0951 31.1306 12.0722 31.0708C11.4528 29.4167 12.7778 27.7778 14.5458 27.7778H35.4556C37.2236 27.7778 38.55 29.4167 37.9278 31.0708C37.9053 31.1306 37.8826 31.1904 37.8597 31.25C35.4694 37.4333 30.6083 41.6667 25 41.6667Z" fill="#4E5269"/>
<path d="M21.2528 22.8361C21.4333 22.3389 21.3792 21.732 21.2306 21.1792C21.0517 20.5426 20.7651 19.9413 20.3833 19.4014C19.5764 18.25 18.2389 17.1931 16.4319 17.1153C14.5611 17.0375 13.1639 18.225 12.3028 19.4847C11.8892 20.0911 11.5642 20.7533 11.3375 21.4514C11.1389 22.0708 11.0333 22.7042 11.1028 23.2111C11.1187 23.3267 11.1636 23.4364 11.2331 23.5301C11.3027 23.6238 11.3947 23.6984 11.5007 23.7471C11.6068 23.7959 11.7233 23.8171 11.8397 23.8089C11.9561 23.8006 12.0686 23.7632 12.1667 23.7C12.7222 23.3445 13.3042 22.857 13.8431 22.407C14.0875 22.2014 14.325 22.0042 14.5444 21.8306C15.325 21.2139 15.9333 20.8625 16.4361 20.8375C16.9153 20.8139 17.4681 21.0875 18.1653 21.6097C18.4153 21.7958 18.6569 21.9931 18.9069 22.1986L19.1778 22.4195C19.5167 22.6931 19.8778 22.9736 20.2417 23.1931C20.3294 23.246 20.4279 23.2788 20.5298 23.2892C20.6318 23.2996 20.7348 23.2873 20.8315 23.2532C20.9281 23.2191 21.016 23.164 21.0889 23.0919C21.1617 23.0198 21.2177 22.9324 21.2528 22.8361ZM28.6292 22.8361C28.4486 22.3389 28.5042 21.732 28.6528 21.1792C28.8083 20.6014 29.0958 19.9806 29.5 19.4014C30.3056 18.25 31.6444 17.1931 33.4514 17.1153C35.3208 17.0375 36.7194 18.225 37.5806 19.4847C38.0167 20.1236 38.3417 20.8153 38.5458 21.4514C38.7431 22.0708 38.8486 22.7042 38.7792 23.2111C38.7631 23.3265 38.7183 23.436 38.6488 23.5295C38.5793 23.623 38.4875 23.6975 38.3816 23.7462C38.2758 23.7949 38.1595 23.8162 38.0432 23.8081C37.927 23.8 37.8147 23.7629 37.7167 23.7C37.1611 23.3445 36.5778 22.857 36.0403 22.407C35.809 22.2118 35.5752 22.0196 35.3389 21.8306C34.5569 21.2139 33.95 20.8625 33.4458 20.8375C32.9667 20.8139 32.4139 21.0875 31.7181 21.6097C31.4681 21.7958 31.2264 21.9931 30.9764 22.1986L30.7042 22.4195C30.3676 22.7007 30.0127 22.9591 29.6417 23.1931C29.5538 23.2463 29.4553 23.2793 29.3532 23.2899C29.251 23.3004 29.1478 23.2882 29.051 23.254C28.9542 23.2199 28.8661 23.1647 28.7932 23.0924C28.7202 23.0202 28.6642 22.9326 28.6292 22.8361Z" fill="#4E5269"/>
</svg>
