<svg width="50" height="52" viewBox="0 0 50 52" fill="none" xmlns="http://www.w3.org/2000/svg">
<path fill-rule="evenodd" clip-rule="evenodd" d="M8.08824 8.88806C8.08803 7.06759 8.6939 5.29134 9.82331 3.80132C10.9527 2.3113 12.5507 1.17997 14.3996 0.561504C16.2485 -0.0569679 18.2583 -0.132511 20.1552 0.345167C22.0521 0.822844 23.7439 1.83051 25 3.23087C26.5994 1.42911 28.902 0.284701 31.4074 0.046365C33.9128 -0.191971 36.4185 0.495024 38.38 1.95804C40.3415 3.42107 41.6003 5.54188 41.8827 7.85956C42.1651 10.1772 41.4484 12.5045 39.8882 14.3355H42.6471C43.6127 14.3355 44.5688 14.5116 45.4609 14.8538C46.353 15.196 47.1636 15.6976 47.8464 16.3299C48.5292 16.9622 49.0708 17.7129 49.4403 18.539C49.8098 19.3652 50 20.2506 50 21.1448V24.5495C50 25.0913 49.7676 25.6109 49.3539 25.994C48.9402 26.3771 48.3792 26.5923 47.7941 26.5923H28.0882C27.9724 26.5923 27.8576 26.5712 27.7506 26.5301C27.6435 26.489 27.5463 26.4288 27.4643 26.353C27.3824 26.2771 27.3174 26.187 27.273 26.0879C27.2287 25.9887 27.2059 25.8825 27.2059 25.7752V16.3511C26.3748 15.8576 25.6308 15.2486 25 14.5452C24.369 15.2476 23.625 15.8558 22.7941 16.3484V25.7752C22.7941 25.9919 22.7012 26.1997 22.5357 26.353C22.3702 26.5062 22.1458 26.5923 21.9118 26.5923H2.20588C1.62085 26.5923 1.05977 26.3771 0.646088 25.994C0.232405 25.6109 0 25.0913 0 24.5495V21.1448C0 20.2506 0.190189 19.3652 0.559709 18.539C0.929229 17.7129 1.47084 16.9622 2.15363 16.3299C2.83641 15.6976 3.64699 15.196 4.53909 14.8538C5.43119 14.5116 6.38734 14.3355 7.35294 14.3355H10.1118C8.79743 12.7808 8.08484 10.8625 8.08824 8.88806ZM22.7941 8.88806C22.7941 7.62389 22.2518 6.41151 21.2866 5.51761C20.3213 4.62372 19.0121 4.12153 17.6471 4.12153C16.282 4.12153 14.9728 4.62372 14.0075 5.51761C13.0423 6.41151 12.5 7.62389 12.5 8.88806C12.5 10.1522 13.0423 11.3646 14.0075 12.2585C14.9728 13.1524 16.282 13.6546 17.6471 13.6546C19.0121 13.6546 20.3213 13.1524 21.2866 12.2585C22.2518 11.3646 22.7941 10.1522 22.7941 8.88806ZM27.2059 8.88806C27.2059 9.51401 27.339 10.1338 27.5977 10.7121C27.8563 11.2904 28.2355 11.8159 28.7134 12.2585C29.1914 12.7011 29.7588 13.0522 30.3832 13.2918C31.0077 13.5313 31.677 13.6546 32.3529 13.6546C33.0289 13.6546 33.6982 13.5313 34.3226 13.2918C34.9471 13.0522 35.5145 12.7011 35.9925 12.2585C36.4704 11.8159 36.8495 11.2904 37.1082 10.7121C37.3669 10.1338 37.5 9.51401 37.5 8.88806C37.5 7.62389 36.9577 6.41151 35.9925 5.51761C35.0272 4.62372 33.718 4.12153 32.3529 4.12153C30.9879 4.12153 29.6787 4.62372 28.7134 5.51761C27.7482 6.41151 27.2059 7.62389 27.2059 8.88806Z" fill="#4E5269"/>
<path d="M22.7941 31.0865C22.7941 30.8698 22.7012 30.6619 22.5357 30.5087C22.3702 30.3554 22.1458 30.2693 21.9118 30.2693H6.3206C5.74322 30.27 5.18463 30.4594 4.74338 30.8043C4.30213 31.1491 4.00656 31.6272 3.90883 32.1542C3.25566 35.6838 3.25566 39.2906 3.90883 42.8203L4.56766 46.3857C4.78404 47.5539 5.40441 48.6255 6.33536 49.439C7.26631 50.2525 8.45745 50.7639 9.72942 50.8962L12.8618 51.2203C15.8625 51.531 18.8759 51.7263 21.8941 51.8059C22.0114 51.8088 22.1282 51.7899 22.2375 51.7502C22.3467 51.7106 22.4463 51.651 22.5302 51.575C22.6141 51.4991 22.6808 51.4083 22.7261 51.3081C22.7714 51.2078 22.7946 51.1002 22.7941 50.9915V31.0865ZM28.1059 51.8059C27.9886 51.8088 27.8718 51.7899 27.7626 51.7502C27.6533 51.7106 27.5537 51.651 27.4698 51.575C27.3859 51.4991 27.3193 51.4083 27.2739 51.3081C27.2286 51.2078 27.2055 51.1002 27.2059 50.9915V31.0865C27.2059 30.8698 27.2989 30.6619 27.4643 30.5087C27.6298 30.3554 27.8542 30.2693 28.0882 30.2693H43.6794C44.8735 30.2693 45.8912 31.0647 46.0912 32.1542C46.7471 35.6841 46.7471 39.2903 46.0912 42.8203L45.4353 46.3857C45.2188 47.5543 44.598 48.6262 43.6664 49.4397C42.7349 50.2533 41.5431 50.7644 40.2706 50.8962L37.1382 51.2203C34.1375 51.5309 31.1241 51.7263 28.1059 51.8059Z" fill="#4E5269"/>
</svg>
