<svg width="40" height="50" viewBox="0 0 40 50" fill="none" xmlns="http://www.w3.org/2000/svg">
<path d="M40 17.5042C40.0013 14.4918 39.1136 11.5302 37.423 8.906C35.7323 6.28179 33.2959 4.08389 30.3497 2.52504C27.4034 0.966198 24.047 0.0992166 20.6055 0.00802162C17.1639 -0.0831734 13.7537 0.604507 10.705 2.0045C7.65633 3.40448 5.07238 5.46936 3.2033 7.99924C1.33422 10.5291 0.24333 13.4383 0.0362196 16.4452C-0.170891 19.4521 0.512796 22.4549 2.0211 25.1628C3.5294 27.8708 5.81124 30.1922 8.64572 31.9023L3.15809e-06 45.0006L6.44572 45.2331L9.89714 50L19.8 34.9919C19.8686 34.9919 19.9314 35.0019 20 35.0019C20.0686 35.0019 20.1314 34.9944 20.2 34.9919L30.1029 50L33.6229 45.3356L40 45.0006L31.3543 31.9023C34.0217 30.2955 36.2025 28.1453 37.7087 25.637C39.2149 23.1287 40.0012 20.3376 40 17.5042ZM5.71429 17.5042C5.71429 15.0322 6.55213 12.6158 8.12186 10.5605C9.6916 8.50511 11.9227 6.90316 14.5331 5.95719C17.1435 5.01121 20.0158 4.7637 22.787 5.24596C25.5582 5.72821 28.1036 6.91857 30.1015 8.6665C32.0994 10.4144 33.46 12.6414 34.0112 15.0659C34.5624 17.4903 34.2795 20.0033 33.1983 22.2871C32.117 24.5709 30.286 26.5229 27.9367 27.8962C25.5874 29.2696 22.8254 30.0026 20 30.0026C16.2112 30.0026 12.5776 28.6858 9.89848 26.3419C7.21939 23.998 5.71429 20.819 5.71429 17.5042Z" fill="#4E5269"/>
<path d="M20 25.0033C24.7339 25.0033 28.5714 21.6458 28.5714 17.5042C28.5714 13.3626 24.7339 10.0052 20 10.0052C15.2661 10.0052 11.4286 13.3626 11.4286 17.5042C11.4286 21.6458 15.2661 25.0033 20 25.0033Z" fill="#4E5269"/>
</svg>
